<svg width="180" height="131" viewBox="0 0 180 131" fill="none" xmlns="http://www.w3.org/2000/svg">
<path fill-rule="evenodd" clip-rule="evenodd" d="M70.4917 6.39699C67.6107 9.91599 65.2527 13.697 65.2527 14.799C65.2527 18.566 68.9897 34.637 71.7637 42.803C77.8107 60.601 85.6317 73.321 96.6497 83.28C103.423 89.402 113.412 94.343 121.753 95.697C125.239 96.263 124.878 95.966 118.935 93.389C106.726 88.094 97.5147 78.56 90.3517 63.803C83.7407 50.185 80.1167 36.205 77.4147 13.901L75.7307 0L70.4917 6.39699ZM56.2527 8.446C54.8777 9.699 49.4697 14.792 44.2337 19.764C38.9987 24.735 29.7737 33.482 23.7337 39.202C-1.12127 62.739 0.0717229 61.44 0.754723 64.232C1.85672 68.743 6.31572 77.589 11.1057 84.768C30.7717 114.244 62.6087 130.303 101.381 130.303C121.01 130.303 135.833 126.071 149.253 116.637C155.715 112.094 164.423 102.81 169.128 95.447C172.729 89.812 179.858 73.548 179.058 72.791C178.89 72.632 176.278 75.462 173.253 79.08C166.854 86.734 159.574 91.921 149.753 95.825C137.01 100.89 116.776 99.414 103.753 92.469C96.4887 88.596 81.4637 73.274 76.1327 64.303C66.7217 48.468 60.0307 27.277 58.9837 9.985L58.7527 6.16699L56.2527 8.446ZM106.495 17.899C99.7687 24.282 93.1177 30.408 91.7127 31.513L89.1597 33.521L89.8187 30.662C90.1807 29.09 91.6847 24.112 93.1587 19.601C95.9617 11.031 95.9557 11.025 90.0787 16.34C86.5147 19.563 85.6817 25.08 87.1617 35.655C88.4857 45.114 88.9377 46.003 91.2117 43.628C92.1727 42.624 94.9407 40.003 97.3637 37.803C120.897 16.435 121.492 15.966 122.42 18.053C122.603 18.465 127.028 22.628 132.253 27.303C137.478 31.978 141.978 36.028 142.253 36.303C142.528 36.578 147.478 41.055 153.253 46.252C159.028 51.449 164.991 56.821 166.503 58.189L169.253 60.677L169.158 56.24C169.07 52.072 168.661 51.444 162.408 45.873C158.748 42.611 152.806 37.211 149.205 33.873C145.603 30.534 137.563 23.078 131.338 17.303C125.112 11.528 119.727 6.68799 119.371 6.54799C119.014 6.40799 113.22 11.515 106.495 17.899ZM117.217 26.578C115.312 28.254 109.928 33.08 105.253 37.303C100.578 41.526 95.1997 46.347 93.3017 48.017L89.8497 51.052L91.2797 55.428C95.9687 69.776 106.167 82.163 118.129 88.04C123.308 90.584 124.664 90.799 135.253 90.753C144.847 90.711 147.665 90.327 152.253 88.434C162.646 84.149 162.253 84.795 162.253 71.991V60.725L151.003 50.666C144.816 45.134 135.462 36.765 130.217 32.07L120.681 23.531L117.217 26.578ZM54.7047 42.303C59.9937 58.411 67.5937 71.912 77.6367 83.039C86.8177 93.211 88.3387 100.509 83.0667 109.086C80.7807 112.805 74.7017 117.303 71.9617 117.303C68.5727 117.303 71.1597 119.013 76.9757 120.618C80.1527 121.495 87.9277 122.934 94.2527 123.818C109.228 125.908 110.098 126.437 97.5267 125.808C81.0267 124.982 63.7567 120.125 51.7527 112.935C35.1397 102.983 19.0737 85.456 12.0857 69.657L10.0637 65.088L13.9087 61.485C16.0227 59.503 25.1697 50.718 34.2357 41.961L50.7187 26.041L51.8087 31.422C52.4087 34.381 53.7117 39.278 54.7047 42.303ZM119.253 45.303V51.303H113.382H107.511L106.843 46.27C106.476 43.502 106.444 40.802 106.773 40.27C107.102 39.738 110.044 39.303 113.312 39.303H119.253V45.303ZM134.253 45.303V51.303H128.314H122.376L121.703 46.815C120.677 39.975 121.26 39.303 128.222 39.303H134.253V45.303ZM119.253 60.803V67.303H113.253H107.253V60.803V54.303H113.253H119.253V60.803ZM134.253 60.803V67.303H128.253H122.253V60.803V54.303H128.253H134.253V60.803ZM58.1557 85.78C53.2367 89.005 50.9137 94.201 51.4577 100.761C51.7037 103.724 52.7147 107.061 53.8197 108.555C58.7147 115.172 68.9847 117.326 75.2627 113.053C80.9407 109.188 82.7527 105.863 82.7527 99.303C82.7527 92.743 80.9407 89.418 75.2627 85.553C70.6987 82.447 63.0837 82.548 58.1557 85.78ZM72.0437 85.944C74.9497 86.722 74.3267 88.914 71.3237 88.476C70.0907 88.296 68.1937 88.951 67.1087 89.933C65.4517 91.432 65.1807 92.803 65.4127 98.492C65.5677 102.284 65.2267 105.729 64.6387 106.317C63.0157 107.94 60.2527 106.355 60.2527 103.803C60.2527 102.546 59.5297 101.24 58.6467 100.901C57.3017 100.385 57.1027 100.938 57.4237 104.303C57.8467 108.74 56.5247 109.159 54.5177 105.224C51.5937 99.493 54.0337 90.627 59.4427 87.329C62.7387 85.319 67.6827 84.776 72.0437 85.944ZM79.1287 91.654C81.2667 94.23 81.4967 101.543 79.5567 105.283C76.0307 112.085 66.5987 115.545 61.6937 111.835C59.8517 110.441 59.9097 110.365 62.8477 110.335C67.8957 110.283 69.4447 107.622 69.0727 99.647C68.7707 93.198 68.8827 92.785 71.0027 92.483C72.6957 92.243 73.2527 92.661 73.2527 94.174C73.2527 96.599 75.1857 98.03 76.2137 96.366C76.6187 95.71 76.7407 94.078 76.4847 92.738C75.9767 90.079 77.3537 89.514 79.1287 91.654Z" fill="#B599E9"/>
</svg>
